<svg width="72" height="72" viewBox="0 0 72 72" xmlns="http://www.w3.org/2000/svg">
  <defs>
    <radialGradient id="orb" cx="50%" cy="50%" r="50%">
      <stop offset="0%" stop-color="rgba(255,255,255,0.9)"/>
      <stop offset="100%" stop-color="rgba(255,255,255,0.15)"/>
    </radialGradient>
    <radialGradient id="glow" cx="50%" cy="50%" r="70%">
      <stop offset="0%" stop-color="#ff9a8b" stop-opacity="0.9"/>
      <stop offset="100%" stop-color="#8ab8ff" stop-opacity="0.4"/>
    </radialGradient>
  </defs>

  <!-- Magical orb -->
  <circle cx="36" cy="36" r="30" fill="url(#orb)" stroke="url(#glow)" stroke-width="3"/>

  <!-- Instagram glyph -->
  <path d="M36 26c-5.5 0-10 4.5-10 10s4.5 10 10 10 10-4.5 10-10-4.5-10-10-10zm0 16c-3.3 0-6-2.7-6-6s2.7-6 6-6
           6 2.7 6 6-2.7 6-6 6zm8-17c0 1.1-.9 2-2 2s-2-.9-2-2 .9-2 2-2 2 .9 2 2zm-2-7H30c-4.4 0-8 3.6-8 8v12c0 4.4 3.6 8 8 8h12c4.4 0 8-3.6 8-8V26c0-4.4-3.6-8-8-8z"
        fill="#d6249f" opacity="0.9"/>
</svg>
